<svg width="174" height="59" viewBox="0 0 174 59" fill="none" xmlns="http://www.w3.org/2000/svg">
<g clip-path="url(#clip0_102_41)">
<path d="M6.10601 15.7114L4.01627 13.3843C1.45916 17.7999 0 22.9208 0 28.1277H1.44142C1.4482 23.2582 3.12643 18.8271 6.10601 15.7114Z" fill="url(#paint0_linear_102_41)"/>
<path d="M5.73504 38.5531C3.11825 36.0545 1.44142 32.67 1.44142 28.1513V28.1279H0C0 33.4227 0.93612 38.3446 2.784 42.6355L5.73504 38.5531Z" fill="url(#paint1_linear_102_41)"/>
<path d="M51.5741 24.3716L48.8987 27.1595C52.604 27.2145 54.8798 30.101 54.7995 33.7846H56.2415C56.2415 30.1505 54.5537 26.8441 51.5741 24.3716Z" fill="url(#paint2_linear_102_41)"/>
<path d="M56.2416 33.7847H54.7997C54.7292 36.8155 53.1244 39.3592 49.5659 41.249L53.3243 46.4725C55.1574 43.0551 56.2416 38.8615 56.2416 33.7847Z" fill="url(#paint3_linear_102_41)"/>
<path d="M7.61014 23.8838C7.50371 24.4567 7.45001 25.0384 7.44971 25.6213C7.44971 34.3021 13.8602 39.845 21.9526 39.845C37.3359 39.845 41.9012 27.1573 48.7914 27.1573C48.8266 27.1573 48.8619 27.1601 48.8986 27.1601L51.574 24.3722C48.2492 21.6116 43.3198 19.8809 37.3359 19.8809C25.1565 19.8809 18.6685 30.1483 13.14 30.1483C10.7352 30.1483 8.8913 27.481 8.8913 24.8946C8.8913 24.6259 8.91026 24.3653 8.93619 24.1115L7.61014 23.8838Z" fill="url(#paint4_linear_102_41)"/>
<path d="M17.1443 11.1519C26.0355 11.1519 32.207 17.9401 40.1405 17.9401C49.6543 17.9401 54.9197 13.2623 56.2416 4.12092L54.7996 3.88102C54.3989 6.30141 52.835 9.21284 50.0321 9.21284C47.3867 9.21284 44.5836 6.86761 40.5019 4.60651C36.4122 2.26128 31.726 0 25.8767 0C16.469 0 8.53131 5.59384 4.01636 13.3845L6.1061 15.7116C8.80727 12.8894 12.5777 11.1519 17.1443 11.1519Z" fill="url(#paint5_linear_102_41)"/>
<path d="M26.4377 44.9365C19.5532 44.9365 10.8466 43.4307 5.73498 38.5527L2.78394 42.6354C7.02727 52.4873 16.0817 58.9998 29.6429 58.9998C38.6078 58.9998 48.5263 55.4166 53.3242 46.4725L49.5658 41.249C45.1472 43.5967 37.711 44.9365 26.4377 44.9365Z" fill="url(#paint6_linear_102_41)"/>
<path d="M79.875 44.1453C70.9698 44.1453 66.0486 38.2376 66.0486 29.4993C66.0486 20.713 71.3775 14.7627 80.0392 14.7627C83.4945 14.7627 86.3803 15.5828 88.6183 16.8568L87.6836 22.9705C85.5681 21.6184 83.0882 20.5555 80.1997 20.5555C75.36 20.5555 73.0065 24.162 73.0065 29.4556C73.0065 34.7902 75.4455 38.527 80.2811 38.527C81.8288 38.527 82.9252 38.238 84.0625 37.6221V32.5756H79.1833L78.368 27.3629H90.1222V41.152C87.1929 43.084 83.7378 44.1453 79.875 44.1453ZM103.461 43.9425C99.6755 43.9425 96.5083 43.1225 93.6605 41.8088L94.6756 35.8172C97.5614 37.378 100.776 38.4447 103.582 38.4447C105.574 38.4447 106.957 37.5808 106.957 35.901C106.957 34.2992 106.143 33.5586 102.197 32.0407C96.5872 29.8656 94.1468 28.0197 94.1468 23.3394C94.1468 17.8828 98.3752 14.9685 103.741 14.9685C107.409 14.9685 109.765 15.6678 112.203 16.857L111.146 22.766C108.631 21.2863 105.981 20.4719 103.825 20.4719C101.711 20.4719 100.695 21.37 100.695 22.6853C100.695 24.1211 101.466 24.819 104.962 26.1741C111.071 28.4286 113.506 30.5637 113.506 35.0782C113.506 41.2354 109.033 43.9425 103.461 43.9425Z" fill="#0069B3"/>
<path d="M144.953 34.602V15.4756H141.945V22.3051H135.627V25.0381H141.945V34.602H144.953ZM136.32 16.0816H122.693V18.8161H132.59C131.146 24.4921 126.725 27.4049 120.949 28.8023L122.392 31.1419C129.131 29.3813 135.358 25.311 136.32 16.0816ZM129.611 32.7792H126.603V41.8879C126.603 42.7119 127.295 43.406 128.108 43.406H145.255V40.6756H129.611V32.7792ZM173.849 29.4416V15.4756H170.842V19.2702H164.524V22.0032H170.842V29.4416H173.849ZM157.665 23.7025C159.44 26.4343 162.237 28.2581 165.246 29.1687L166.69 26.8607C162.569 25.6772 159.229 23.2773 159.229 17.9934V15.7787H156.101V17.9934C156.101 23.2773 152.763 25.6772 148.642 26.8607L150.085 29.1687C153.093 28.2581 155.89 26.4343 157.665 23.7025ZM158.207 38.1525H173.849V30.6551H155.047V33.2952H170.842V35.6633H155.199V41.8879C155.199 42.7119 155.89 43.406 156.704 43.406H174V40.7676H158.207V38.1525Z" fill="#92979B"/>
</g>
<defs>
<linearGradient id="paint0_linear_102_41" x1="6.94088" y1="16.5048" x2="-1.67522" y2="25.0415" gradientUnits="userSpaceOnUse">
<stop stop-color="#F6BE00"/>
<stop offset="1" stop-color="#C8C51B"/>
</linearGradient>
<linearGradient id="paint1_linear_102_41" x1="-1.82241" y1="31.4102" x2="5.56325" y2="38.7279" gradientUnits="userSpaceOnUse">
<stop stop-color="#C8C51B"/>
<stop offset="1" stop-color="#80BC2E"/>
</linearGradient>
<linearGradient id="paint2_linear_102_41" x1="50.0988" y1="25.9112" x2="56.3791" y2="32.1335" gradientUnits="userSpaceOnUse">
<stop stop-color="#7ECAF0"/>
<stop offset="1" stop-color="#00AFC2"/>
</linearGradient>
<linearGradient id="paint3_linear_102_41" x1="57.5558" y1="36.6025" x2="51.2092" y2="42.8904" gradientUnits="userSpaceOnUse">
<stop stop-color="#00AFC2"/>
<stop offset="1" stop-color="#009C96"/>
</linearGradient>
<linearGradient id="paint4_linear_102_41" x1="10.547" y1="29.8627" x2="48.794" y2="29.8627" gradientUnits="userSpaceOnUse">
<stop stop-color="#0069B3"/>
<stop offset="1" stop-color="#7ECAF0"/>
</linearGradient>
<linearGradient id="paint5_linear_102_41" x1="4.01636" y1="8.97008" x2="56.2416" y2="8.97008" gradientUnits="userSpaceOnUse">
<stop stop-color="#F6BE00"/>
<stop offset="0.6301" stop-color="#ED8113"/>
<stop offset="1" stop-color="#E9621D"/>
</linearGradient>
<linearGradient id="paint6_linear_102_41" x1="5.73574" y1="48.7763" x2="49.5686" y2="48.7763" gradientUnits="userSpaceOnUse">
<stop stop-color="#80BC2E"/>
<stop offset="1" stop-color="#009C96"/>
</linearGradient>
<clipPath id="clip0_102_41">
<rect width="174" height="59" fill="white"/>
</clipPath>
</defs>
</svg>
