<svg width="176" height="59" viewBox="0 0 176 59" fill="none" xmlns="http://www.w3.org/2000/svg">
<g clip-path="url(#clip0_102_55)">
<path d="M127.413 30.1586C132.891 28.839 136.841 24.6803 137.209 19.3699H128.166V17.5065H141.047C141.094 19.6659 140.631 21.8055 139.697 23.7486H145.71V16.5508H149.402V34.4333H145.71V25.664H138.552C135.965 29.0252 132.177 31.2288 127.999 31.8021L127.413 30.1586ZM135.24 39.0359C135.24 39.5158 135.24 39.9676 136.183 39.9676H150.083V41.8311H133.489C131.636 41.8311 131.636 40.4675 131.636 39.5118V33.4096H135.24V39.0359ZM162.636 18.0463C162.707 20.0512 163.335 21.9957 164.447 23.6584C165.559 25.3211 167.111 26.6353 168.927 27.4515L167.691 28.911C164.904 27.8896 162.486 26.0464 160.751 23.6206C159.028 26.0677 156.596 27.9158 153.791 28.911L152.587 27.4515C154.382 26.6422 155.916 25.3394 157.013 23.6918C158.11 22.0442 158.726 20.1184 158.79 18.1343V16.8627H162.593L162.636 18.0463ZM171.798 35.389V32.5619H157.34V30.6705H175.431V37.2005H160.988V39.3198C160.988 39.7397 161.155 39.9596 161.638 39.9596H175.819V41.8351H159.645C159.341 41.8618 159.034 41.821 158.747 41.7156C158.46 41.6102 158.199 41.4427 157.982 41.2249C157.765 41.007 157.599 40.7441 157.493 40.4544C157.388 40.1647 157.346 39.8553 157.372 39.5478V35.3131L171.798 35.389ZM175.435 16.5548V29.3789H171.723V22.9008H166.629V20.9974H171.723V16.5548H175.435ZM119.142 16.5548V41.8511H122.893V16.5548H119.142ZM113.16 25.684H108.443V27.9513H113.156V33.2377C112.215 33.6227 111.206 33.8131 110.19 33.7975H104.858C104.739 33.7976 104.621 33.7736 104.512 33.7272C104.403 33.6807 104.303 33.6126 104.22 33.527C104.137 33.4413 104.072 33.3397 104.029 33.2283C103.985 33.1168 103.964 32.9976 103.966 32.8778V20.3216H110.8V18.4902H100.088V33.8335C100.086 34.0715 100.13 34.3076 100.218 34.5283C100.307 34.7489 100.438 34.9496 100.603 35.1189C100.769 35.2881 100.967 35.4224 101.184 35.5141C101.402 35.6058 101.635 35.653 101.871 35.653H110.19C111.22 35.7068 112.246 35.4803 113.16 34.9972V41.8511H116.9V16.5548H113.156L113.16 25.684ZM85.0674 29.9187V27.4315H93.3187V25.612H77.7748C77.5353 25.612 77.3055 25.516 77.1362 25.345C76.9668 25.174 76.8716 24.9421 76.8716 24.7003V23.1128H92.9701V16.9866H73.057V18.8101H89.1039V21.2853H73.0055V25.604C73.0044 25.8436 73.0503 26.0811 73.1404 26.3027C73.2305 26.5244 73.3631 26.7259 73.5306 26.8957C73.698 27.0655 73.8971 27.2003 74.1163 27.2922C74.3355 27.3841 74.5705 27.4315 74.8078 27.4315H81.1815V29.9187H70.906V31.7381H95.3983V29.9187H85.0674ZM85.1744 32.9018H80.8368C79.6802 37.7163 74.0433 40.1396 71.9795 40.4435L73.0253 42.051C76.7993 41.3575 80.2713 39.5108 82.9719 36.7606C85.6777 39.5102 89.1533 41.3566 92.9305 42.051L93.9762 40.4435C91.9758 40.1396 86.3271 37.7163 85.1744 32.9018ZM4.83278 17.1546L17.0413 4.83834C18.6223 3.24498 20.4989 1.98194 22.5639 1.12148C24.629 0.261027 26.8418 -0.17996 29.0758 -0.176246C31.3098 -0.172532 33.5211 0.27581 35.5833 1.14313C37.6455 2.01045 39.5181 3.27972 41.0938 4.87833L53.2984 17.1946C56.4793 20.4109 58.2659 24.77 58.2659 29.3149C58.2659 33.8597 56.4793 38.2189 53.2984 41.4352L41.0978 53.7594C39.522 55.3587 37.6492 56.6284 35.5866 57.4961C33.5241 58.3638 31.3122 58.8123 29.0778 58.816C26.8433 58.8197 24.63 58.3786 22.5646 57.5177C20.4993 56.6569 18.6223 55.3934 17.0413 53.7994L4.83278 41.4832C3.24418 39.8899 1.98342 37.995 1.12308 35.9076C0.262745 33.8203 -0.180176 31.5818 -0.180176 29.3209C-0.180176 27.06 0.262745 24.8215 1.12308 22.7341C1.98342 20.6468 3.24418 18.7479 4.83278 17.1546Z" fill="#ED1B23"/>
<path d="M21.8421 47.4254C21.4927 47.4218 21.1518 47.3163 20.8605 47.1215C20.5692 46.9266 20.34 46.6508 20.2005 46.3274C20.061 46.004 20.0173 45.6467 20.0745 45.2987C20.1317 44.9507 20.2875 44.6269 20.523 44.3663C20.7646 44.0978 21.0802 43.9084 21.4294 43.8226C21.7785 43.7369 22.1451 43.7587 22.4818 43.8852C22.8186 44.0117 23.11 44.2371 23.3187 44.5324C23.5273 44.8277 23.6436 45.1794 23.6524 45.542C23.662 45.7804 23.6248 46.0184 23.5432 46.2424C23.4615 46.4664 23.3369 46.6719 23.1765 46.8472C23.0161 47.0225 22.823 47.1641 22.6083 47.264C22.3936 47.3639 22.1615 47.4201 21.9253 47.4294L21.8421 47.4254ZM28.4138 13.7956C27.9663 13.7799 27.5203 13.8561 27.1028 14.0197C26.6854 14.1833 26.3053 14.4309 25.9856 14.7473C24.611 16.1349 23.8742 18.998 23.9455 22.8169C24.0248 27.5274 25.1101 36.7526 28.798 41.5032C29.3224 42.2134 29.9611 42.8298 30.6875 43.3266C31.413 43.8742 32.2932 44.1727 33.199 44.1784C33.5235 44.1797 33.8474 44.1476 34.1655 44.0824C36.2808 43.5746 38.9031 41.2193 40.8639 38.0722C41.007 37.8366 41.208 37.6424 41.4475 37.5085C41.687 37.3747 41.9568 37.3057 42.2306 37.3085C42.5372 37.32 42.8353 37.4139 43.0941 37.5804C43.4551 37.8146 43.711 38.1821 43.8072 38.6042C43.9034 39.0264 43.8323 39.4698 43.6091 39.8397C41.1214 43.8105 37.8534 46.6016 34.8548 47.2974H34.7835C34.2526 47.3948 33.7147 47.447 33.1752 47.4534C31.6447 47.4386 30.1551 46.9532 28.905 46.0618C27.8847 45.3491 26.9857 44.474 26.243 43.4706C21.0855 36.7766 20.7251 24.2284 20.7132 22.8289C20.6538 19.4939 21.1212 14.9713 23.7118 12.3801C24.3232 11.763 25.0515 11.2768 25.8533 10.9504C26.6551 10.624 27.5138 10.4643 28.3781 10.4806H28.6713C29.5356 10.4643 30.3944 10.624 31.1961 10.9504C31.9979 11.2768 32.7263 11.763 33.3376 12.3801C35.9164 14.9713 36.3957 19.4459 36.3363 22.8289C36.2982 28.5207 34.8332 34.1101 32.0779 39.0759C31.9346 39.3185 31.7317 39.5196 31.4888 39.6597C31.2459 39.7998 30.9713 39.8742 30.6915 39.8757C30.3979 39.8764 30.1099 39.7947 29.8596 39.6398C29.4928 39.4163 29.2282 39.0556 29.1236 38.6362C29.019 38.2168 29.0828 37.7726 29.3011 37.4004C31.858 32.9611 33.1724 27.9038 33.1039 22.7689C33.1633 18.9541 32.4384 16.0909 31.0639 14.6994C30.7445 14.3822 30.3645 14.1339 29.947 13.9696C29.5296 13.8053 29.0834 13.7284 28.6356 13.7436L28.4138 13.7956Z" fill="white"/>
</g>
<defs>
<clipPath id="clip0_102_55">
<rect width="176" height="59" fill="white"/>
</clipPath>
</defs>
</svg>
