<svg width="265" height="59" viewBox="0 0 265 59" fill="none" xmlns="http://www.w3.org/2000/svg">
<g clip-path="url(#clip0_102_64)">
<path d="M37.6503 0.000488281H16.8867C10.3611 0.000488281 5.07104 5.91413 5.07104 13.209V45.7922C5.07104 53.087 10.3611 59.0007 16.8867 59.0007H37.6503C44.1759 59.0007 49.4659 53.087 49.4659 45.7922V13.209C49.4659 5.91413 44.1759 0.000488281 37.6503 0.000488281Z" fill="#F9F9F9"/>
<path d="M34.5936 20.4187C34.6509 23.2064 33.6668 25.0801 30.827 25.0233C30.189 24.9979 27.0508 25.0233 26.4711 25.0233V16.4644H31.3494C33.7825 16.6626 34.5363 17.5016 34.5936 20.4187ZM42.0293 42.6851C41.0269 47.0081 38.0357 48.6087 33.63 48.9532H12.0603V16.763L18.1703 9.95937V42.476H31.0001C33.5522 42.3878 34.9418 41.8679 35.4825 39.0174C35.489 37.3032 35.4825 35.5588 35.4057 33.8337C35.1992 32.6115 34.48 31.1512 32.779 30.9783H26.5479L26.4711 40.9165H19.867V9.89651C21.3388 9.89651 31.6165 9.97509 33.3186 9.98234C38.5775 10.0791 40.7457 12.5476 41.2637 16.9685C41.4335 18.4748 41.6638 19.894 41.2421 22.6624C40.6959 25.253 38.8867 26.9878 36.3336 27.6792C41.8995 28.465 42.1677 32.7094 42.3981 35.7328C42.5516 37.5486 42.3418 41.4738 42.0293 42.6851ZM49.4661 0.000565209H3.18307C2.76527 0.000406429 2.35153 0.0922425 1.96548 0.270829C1.57943 0.449415 1.22862 0.711255 0.933092 1.0414C0.637563 1.37154 0.403095 1.76353 0.243079 2.19496C0.0830626 2.6264 0.000630269 3.08885 0.000488281 3.5559V55.2975C0.000775024 56.2408 0.336209 57.1454 0.933026 57.8124C1.52984 58.4793 2.33918 58.854 3.18307 58.854H49.4661C49.884 58.8542 50.2979 58.7623 50.684 58.5836C51.0701 58.405 51.421 58.143 51.7165 57.8127C52.012 57.4825 52.2465 57.0903 52.4064 56.6588C52.5664 56.2272 52.6487 55.7646 52.6487 55.2975V3.5559C52.6487 3.08881 52.5664 2.62629 52.4064 2.19478C52.2464 1.76326 52.012 1.37122 51.7164 1.04104C51.4209 0.710868 51.07 0.449036 50.6839 0.270506C50.2978 0.091976 49.884 0.000247564 49.4661 0.000565209Z" fill="#AC1524"/>
<path d="M237.518 20.9405C240.272 25.1753 245.202 28.7983 248.968 30.556L249.206 30.666L252.869 24.4826L252.573 24.3025C248.445 21.7723 242.957 17.2208 241.002 12.6597C241.602 10.1537 242.02 6.19817 242.02 2.97286V2.62712H233.974L233.977 2.97407C234.051 12.9583 230.073 20.1693 221.457 25.6673L221.144 25.8692L225.481 31.9136L225.707 31.7794C229.735 29.387 235.054 25.029 237.518 20.9405ZM239.564 50.2742V48.3037H260.763C264.16 48.3037 264.893 47.5989 264.893 44.3385V36.8241C264.893 33.7511 263.943 32.8602 260.654 32.8602H231.464V39.6541H256.558C256.779 39.6541 256.85 39.7399 256.85 39.989V41.7902H231.464V53.3254C231.464 56.1046 232.054 57.3438 235.541 57.3438H265.001V50.5486H239.907C239.564 50.5486 239.564 50.389 239.564 50.2742ZM256.85 2.175V10.9346H247.242V17.9534H256.85V30.7857H265.001V2.175H256.85ZM147.903 34.3918H161.606V27.3126H134.655C134.086 27.3126 134.038 27.0382 134.038 26.7565V12.4155H161.606V5.28304H125.777V29.5236C125.777 32.8009 127.341 34.3918 130.562 34.3918H139.695V43.7583H118.952V50.8931H168.701V43.7583H147.903V34.3918ZM110.294 2.175H102.086V40.8993H110.294V25.4158H118.153V18.281H110.294V2.175ZM85.399 48.5213V37.6099H77.1912V51.7418C77.1912 55.1678 78.1201 56.159 81.3232 56.159H110.294V49.0218H85.9635C85.4412 49.0218 85.399 48.7969 85.399 48.5213ZM88.7644 19.5951H79.6654V25.2962C79.6654 25.6117 79.7487 25.7966 80.1769 25.7966H88.2561C88.6822 25.7966 88.7644 25.6117 88.7644 25.2962V19.5951ZM92.5125 32.7622H76.0254C72.3129 32.7622 71.4597 31.9463 71.4597 28.403V4.65926H79.6654V12.5714H88.7644V4.65926H96.9712V28.5722C96.9712 31.7444 95.8897 32.7622 92.5125 32.7622ZM206.95 18.449H198.406V25.5307H206.95V41.239H215.103V2.175H206.95V18.449ZM190.318 48.5213V37.6099H182.113V51.7418C182.113 55.1678 183.026 56.159 186.186 56.159H215.103V49.0218H190.881C190.36 49.0218 190.318 48.7969 190.318 48.5213ZM189.349 28.7608C185.172 32.5882 180.306 35.5246 175.282 37.2581L175.041 37.3403L171.876 30.7374L172.194 30.5923C187.11 23.8395 190.196 16.9947 191.079 12.3018H175.164V5.22744H197.897C198.432 5.22744 198.78 5.34832 199.018 5.61911C199.433 6.08575 199.427 6.84976 199.417 8.23515L199.414 9.0173C199.414 17.7237 193.94 24.5612 189.349 28.7608Z" fill="#222354"/>
</g>
<defs>
<clipPath id="clip0_102_64">
<rect width="265" height="59" fill="white"/>
</clipPath>
</defs>
</svg>
