<svg width="215" height="59" viewBox="0 0 215 59" fill="none" xmlns="http://www.w3.org/2000/svg">
<g clip-path="url(#clip0_102_58)">
<path d="M64.4483 32.656C63.5203 23.1869 52.7961 15.3826 40.5251 15.2786C28.2542 15.1745 19.0767 22.7706 20.0048 32.3438C20.9329 41.8129 31.6571 49.6171 43.928 49.7212C56.199 49.7212 65.3764 42.1251 64.4483 32.656ZM23.8201 30.2627C22.9952 22.5625 30.9352 16.4232 41.6594 16.5273C52.3836 16.6313 61.5611 22.8747 62.386 30.5749C63.2109 38.275 55.2709 44.4143 44.5467 44.3103C33.9256 44.2062 24.6451 37.8588 23.8201 30.2627Z" fill="#FBB584"/>
<path d="M23.5108 28.9102C16.4989 36.2982 16.3958 47.7443 23.3046 54.4039C30.2135 61.0635 41.4532 60.4392 48.4652 53.0512C55.4772 45.6632 55.5803 34.217 48.7746 27.5574C41.7626 20.8978 30.5228 21.5222 23.5108 28.9102ZM45.8873 49.8255C39.8034 56.1729 30.1103 56.6932 24.2327 50.9701C18.355 45.247 18.4581 35.4657 24.4389 29.1183C30.5228 22.7709 40.2158 22.2506 46.0935 27.9737C51.9712 33.6968 51.8681 43.478 45.8873 49.8255Z" fill="#F89B6C"/>
<path d="M12.4772 9.1393C-0.51557 19.5449 -3.91844 34.6331 5.05276 42.8535C14.024 51.0739 31.8632 49.305 44.856 38.7953C57.8488 28.3897 61.2517 13.3015 52.2805 5.08111C43.3093 -3.03527 25.47 -1.26632 12.4772 9.1393ZM24.1295 5.08111C36.7098 0.294525 49.0838 5.18517 51.868 15.7989C54.6522 26.5167 46.7121 39.0034 34.1318 43.79C21.5515 48.5766 9.07433 43.686 6.39329 33.0722C3.60912 22.3544 11.5491 9.86769 24.1295 5.08111Z" fill="#F37321"/>
<path d="M97.3425 29.638C97.3425 27.765 97.1368 25.7882 96.6209 23.7068C96.1051 21.6262 95.2807 19.7531 94.0433 17.8801H96.6209C97.7555 19.3364 98.5799 21.1056 99.0958 23.187C99.6116 25.2676 99.921 27.4528 99.921 29.638C99.921 31.9277 99.6116 34.0084 99.0958 36.0897C98.4771 38.1711 97.6519 39.9396 96.6209 41.3966H94.0433C95.177 39.6274 96.1051 37.6506 96.6209 35.4654C97.1368 33.5924 97.3425 31.6156 97.3425 29.638ZM94.0433 21.9383H88.3713C88.5778 23.4992 89.2993 24.7478 90.4339 25.7882C91.6713 26.8285 92.9087 27.349 94.3526 27.4528V29.7426C92.1872 29.7426 90.2274 29.1182 88.5778 27.8695C87.8603 27.3536 87.233 26.7206 86.7217 25.9965C86.2104 26.7206 85.5831 27.3536 84.8656 27.8695C83.1123 29.1182 81.2562 29.7426 79.0907 29.7426V27.4528C80.4318 27.349 81.772 26.8285 83.0094 25.7882C84.144 24.7478 84.8656 23.3946 85.072 21.9383H79.4001V19.6486H94.1461V21.9383H94.0433ZM95.6929 33.6962H88.2684V39.9396H84.9684V33.6962H77.5439V31.3034H95.59V33.6962H95.6929ZM75.8943 29.638C75.8943 31.511 76.1008 33.4886 76.6159 35.4654C77.1317 37.5468 77.9569 39.5236 79.1943 41.3966H76.6159C75.4821 39.9396 74.6569 38.1711 74.1411 36.0897C73.5224 34.0084 73.3167 31.9277 73.3167 29.638C73.3167 27.349 73.626 25.1638 74.1411 23.187C74.6569 21.1056 75.4821 19.3364 76.6159 17.8801H79.1943C78.0206 19.6646 77.1492 21.6337 76.6159 23.7068C76.1345 25.6464 75.8922 27.6385 75.8943 29.638ZM123.225 23.9151H126.628V26.5163H123.225V34.8411H120.029V17.8793H123.225V23.9151ZM109.614 31.1988C110.439 31.1988 111.161 30.9912 111.779 30.4707C112.398 30.0547 112.707 29.4304 112.707 28.7015C112.707 27.9733 112.398 27.4528 111.779 26.933C111.161 26.5163 110.439 26.2041 109.614 26.2041C108.789 26.2041 108.067 26.4125 107.448 26.933C106.83 27.4528 106.52 27.9733 106.52 28.7015C106.52 29.4304 106.83 30.0547 107.448 30.4707C107.964 30.9912 108.686 31.1988 109.614 31.1988ZM105.799 17.4634H113.326V19.8569H105.799V17.4634ZM110.748 38.8993H123.432V41.3966H110.026C107.139 41.3966 105.695 40.0441 105.695 37.3384V34.7365H108.995V37.0255C108.789 38.2741 109.407 38.8985 110.748 38.8985M109.614 33.4878C107.758 33.4878 106.211 33.0711 105.076 32.0308C103.943 31.0943 103.324 29.9494 103.324 28.7007C103.324 27.452 103.943 26.3079 105.076 25.3714C106.211 24.4349 107.758 24.0182 109.614 24.0182C111.47 24.0182 112.914 24.4349 114.151 25.3714C115.285 26.3079 115.904 27.452 115.904 28.7007C115.904 30.0539 115.285 31.0943 114.151 32.0308C112.914 32.9673 111.47 33.4878 109.614 33.4878ZM116.935 23.0816H102.292V20.6889H116.935V23.0816ZM136.734 31.1988C137.558 31.1988 138.281 30.9912 138.899 30.4707C139.518 30.0547 139.827 29.4304 139.827 28.7015C139.827 27.9733 139.518 27.4528 138.899 26.933C138.281 26.5163 137.558 26.2041 136.734 26.2041C135.909 26.2041 135.187 26.4125 134.568 26.933C133.95 27.4528 133.64 27.9733 133.64 28.7015C133.64 29.4304 133.95 30.0547 134.568 30.4707C135.187 30.9912 135.806 31.1988 136.734 31.1988ZM133.022 17.4634H140.549V19.8569H133.022V17.4634ZM143.952 23.0824H129.309V20.6896H143.952V23.0824ZM135.084 33.384C133.95 33.1764 132.918 32.7597 132.094 32.0315C130.959 31.095 130.443 29.9502 130.443 28.7015C130.443 27.4528 131.062 26.3087 132.196 25.3722C133.331 24.4357 134.878 24.0189 136.734 24.0189C138.59 24.0189 140.033 24.5395 141.271 25.3722C142.405 26.3087 143.024 27.4528 143.024 28.7015C143.024 30.0547 142.405 31.095 141.374 32.0315C140.549 32.6559 139.621 33.1764 138.486 33.384V35.8814H142.096C145.396 35.8814 147.045 34.6327 147.045 32.0315V17.8793H150.242V25.7874H153.645V28.3885H150.242V41.4996H147.045V37.0255C146.117 37.8582 144.571 38.3779 142.714 38.3779H129V35.7768H135.29V33.3832L135.084 33.384ZM164.679 17.8793L157.976 41.7088H154.882L161.585 17.8801L164.679 17.8793ZM176.434 38.8993H189.117V41.5004H175.712C172.825 41.5004 171.381 40.1479 171.381 37.4422V33.6962H174.681V36.9225C174.578 38.2749 175.196 38.8993 176.434 38.8993ZM175.815 25.7882C177.053 24.2273 177.671 22.5627 177.877 20.6896H168.596V18.1923H179.424C180.765 18.1923 181.384 19.0242 181.28 20.6896C181.28 21.73 181.074 22.6665 180.765 23.603H185.405V17.7755H188.602V34.8411H185.405V26.3079H179.527C179.114 26.8277 178.702 27.452 178.29 27.9726C175.712 30.7821 172.309 32.5513 167.875 33.1756V30.5737C171.175 29.8456 173.855 28.2855 175.815 25.7882ZM215 17.8793V29.8464H211.803V24.2273H205.925V21.6262H211.803V17.8801H214.999L215 17.8793ZM215 37.4422H200.461V37.7544C200.461 38.5871 200.976 38.8993 201.904 38.8993H214.999V41.3966H201.491C198.604 41.3966 197.161 40.0441 197.161 37.3384V34.9449H211.7V33.5924H197.161V31.095H214.278C214.69 31.095 214.999 31.3034 214.999 31.8232V37.4422H215ZM201.904 18.9204C201.904 21.9383 202.625 24.1235 203.966 25.476C205.1 26.5163 206.337 27.1406 207.988 27.2452V29.7426C205.616 29.638 203.553 28.806 201.697 27.2452C201.182 26.8285 200.666 26.2041 200.357 25.6844C199.945 26.3087 199.532 26.8285 199.017 27.2452C197.161 28.806 194.995 29.638 192.726 29.7426V27.2452C194.273 27.1406 195.614 26.5163 196.748 25.476C198.089 24.1235 198.81 21.9383 198.81 18.9204V18.1923H202.007V18.9204H201.904Z" fill="black"/>
</g>
<defs>
<clipPath id="clip0_102_58">
<rect width="215" height="59" fill="white"/>
</clipPath>
</defs>
</svg>
