<svg xmlns="http://www.w3.org/2000/svg" width="181.013" height="74.088" viewBox="0 0 181.013 74.088">
  <path id="logo" d="M34.54,65.741c-6.077,0-9.568-3.953-9.568-10.805a11.4,11.4,0,0,1,2.937-8.293A9.42,9.42,0,0,1,34.632,44c5.855,0,9.475,4.137,9.494,10.805a11.359,11.359,0,0,1-2.881,8.312A9.623,9.623,0,0,1,34.54,65.741Zm0-17.769a2.309,2.309,0,0,0-1.681.683c-1.274,1.274-1.533,4.045-1.533,6.151,0,4.655,1.09,6.926,3.325,6.926a1.958,1.958,0,0,0,1.422-.61c1.256-1.256,1.515-4.137,1.515-6.317s-.24-6.816-2.992-6.816Zm30.273,17.4V51.833c0-5.19-2.253-7.832-6.631-7.832a8.164,8.164,0,0,0-6.317,2.734L51.44,44.3H45.9c0,.7.2,4.765.222,6.243V65.316h6.465V52.387c0-3.1,1.847-4.064,3.1-4.064,1.847,0,2.715,1.293,2.715,3.694V62.1c0,2.512,1.847,3.2,3.694,3.306a9.974,9.974,0,0,0,2.771-.037Zm93.073,0V51.833c0-5.19-2.235-7.832-6.612-7.832a8.146,8.146,0,0,0-6.317,2.734l-.425-2.438h-5.541c0,.7.2,4.765.2,6.243V65.316h6.465V52.387c0-3.1,1.847-4.064,3.1-4.064,1.847,0,2.715,1.293,2.715,3.694V62.1c0,2.494,1.847,3.2,3.694,3.306a9.79,9.79,0,0,0,2.771-.037ZM74.769,74.127a35.832,35.832,0,0,1-6.151-.924A17.273,17.273,0,0,1,69.3,70.82c.314-.85,1.145-1.293,2.494-1.108a17.822,17.822,0,0,0,2.752.277,4.95,4.95,0,0,0,3.694-1.238,5.652,5.652,0,0,0,1.367-4.137v-1.5h-.185a5.781,5.781,0,0,1-4.71,2.05c-5.763,0-7.813-5.246-7.813-10.177a12.338,12.338,0,0,1,3.066-8.829,7.388,7.388,0,0,1,5.356-2.235,5.541,5.541,0,0,1,4.821,2.42l.517-2.05H86.2s-.222,3.509-.222,6.594V63.1c0,4.4-.905,6.982-3.011,8.663a12.929,12.929,0,0,1-8.182,2.309Zm2.124-25.674a2.789,2.789,0,0,0-2.05.831,8.423,8.423,0,0,0-1.588,5.652c0,3.86,1.311,6.188,3.491,6.188A2.6,2.6,0,0,0,79.2,59.479a4.839,4.839,0,0,0,.332-1.847V51.907a5.19,5.19,0,0,0-.277-1.644,2.53,2.53,0,0,0-2.364-1.847ZM97.21,65.63a9.882,9.882,0,0,0,1.847-.222L102.4,51.685h.185s1.607,5.781,2.7,10.066c1,3.953,4.045,3.694,5.763,3.694a3.232,3.232,0,0,0,1.219-.185L118.322,44.3h-6.483l-3.158,13.52H108.5L105.024,44.3a10.916,10.916,0,0,0-1.847-.2c-1.5,0-3.029,0-3.694,2.494s-2.641,11.286-2.641,11.286h-.129L93.258,44.3H86.812c.591,2.069,4.71,16.383,5.153,17.75a4.839,4.839,0,0,0,5.3,3.528Zm30.292.111c-6.1,0-9.586-3.953-9.586-10.805a11.47,11.47,0,0,1,2.937-8.293A9.457,9.457,0,0,1,127.595,44c5.837,0,9.475,4.137,9.475,10.805a11.36,11.36,0,0,1-2.863,8.312A9.66,9.66,0,0,1,127.5,65.741Zm0-17.769a2.309,2.309,0,0,0-1.681.683c-1.256,1.274-1.533,4.045-1.533,6.151,0,4.655,1.09,6.926,3.325,6.926a1.976,1.976,0,0,0,1.441-.61c1.311-1.33,1.515-4.525,1.515-6.317,0-2.069-.314-6.834-3.066-6.834ZM0,61.6V36.65a48.023,48.023,0,0,1,8.755-.369c9.734.683,14.776,7.24,14.776,15.423,0,5.412-2.567,14-15.848,14C1.625,65.7,0,63.894,0,61.6ZM6.465,41.286V58.648a2.007,2.007,0,0,0,2.272,2.346c3.251,0,7.573-2.235,7.573-9.235,0-3.491-1.847-9.937-7.388-10.547a8.552,8.552,0,0,0-2.457,0ZM174.547,6.063a23.254,23.254,0,0,0-31.234,0,19.634,19.634,0,0,0,0,29.128,23.217,23.217,0,0,0,31.234,0,19.634,19.634,0,0,0,0-29.128Zm-17.03,32.693a18.23,18.23,0,0,1-3.454-.573,16.624,16.624,0,0,1-4.451-2.161,28.389,28.389,0,0,1,7.924-1.515Zm0-6.446a30.809,30.809,0,0,0-9.752,2.124c-.314-.277-.61-.573-.905-.887A19.45,19.45,0,0,1,144.07,29.7a75.082,75.082,0,0,1,13.5-1.4Zm0-6.631a78.388,78.388,0,0,0-14.573,1.588,19.561,19.561,0,0,1-1.238-5.707h15.811Zm0-6.428H141.724a19.635,19.635,0,0,1,1.293-5.689,79.183,79.183,0,0,0,14.5,1.57Zm0-6.649a77.133,77.133,0,0,1-13.447-1.33,18.232,18.232,0,0,1,2.641-3.694,13.909,13.909,0,0,1,1.053-1,30.975,30.975,0,0,0,9.7,1.995Zm0-6.225A28.241,28.241,0,0,1,149.8,4.936a16.383,16.383,0,0,1,7.721-2.808Zm2.752-4.248a16.309,16.309,0,0,1,7.813,2.881,28.241,28.241,0,0,1-7.721,1.441Zm0,6.372a30.975,30.975,0,0,0,9.66-1.921,13.915,13.915,0,0,1,1.053,1.034,18.231,18.231,0,0,1,2.641,3.694,77.132,77.132,0,0,1-13.391,1.4Zm0,6.631a79.424,79.424,0,0,0,14.5-1.57,19.633,19.633,0,0,1,1.293,5.689H160.269Zm3.454,23.051a18.231,18.231,0,0,1-3.454.573V34.507a28.13,28.13,0,0,1,7.924,1.515,16.623,16.623,0,0,1-4.47,2.235Zm7.388-4.71q-.443.48-.887.887a31.031,31.031,0,0,0-9.863-2.05V28.3a75.083,75.083,0,0,1,13.5,1.4,19.45,19.45,0,0,1-2.844,3.842Zm3.823-6.206a78.389,78.389,0,0,0-14.666-1.441V21.633H176.08a20.169,20.169,0,0,1-1.238,5.707Z" transform="translate(0 -0.039)" fill="rgba(255,255,255,0.3)"/>
</svg>
