<svg xmlns="http://www.w3.org/2000/svg" xmlns:xlink="http://www.w3.org/1999/xlink" width="220" height="90" viewBox="0 0 220 90">
  <defs>
    <clipPath id="clip-path">
      <rect id="사각형_7" data-name="사각형 7" width="220" height="90" transform="translate(157 127)" fill="#0065bd"/>
    </clipPath>
  </defs>
  <g id="마스크_그룹_6" data-name="마스크 그룹 6" transform="translate(-157 -127)" clip-path="url(#clip-path)">
    <path id="logo" d="M41.026,79.89c-7.218,0-11.364-4.8-11.364-13.126A14.036,14.036,0,0,1,33.15,56.69a11.055,11.055,0,0,1,7.986-3.209c6.955,0,11.255,5.026,11.277,13.126a13.994,13.994,0,0,1-3.422,10.1A11.292,11.292,0,0,1,41.026,79.89Zm0-21.585a2.711,2.711,0,0,0-2,.83c-1.514,1.548-1.821,4.914-1.821,7.472,0,5.654,1.294,8.414,3.949,8.414a2.3,2.3,0,0,0,1.689-.74c1.492-1.526,1.8-5.026,1.8-7.674s-.285-8.279-3.554-8.279ZM76.983,79.441V62.995c0-6.3-2.677-9.513-7.876-9.513A9.6,9.6,0,0,0,61.6,56.8l-.5-2.962H54.518c0,.853.241,5.789.263,7.584v17.95H62.46V63.668c0-3.769,2.194-4.936,3.686-4.936,2.194,0,3.225,1.571,3.225,4.487V75.47c0,3.051,2.194,3.882,4.388,4.016a11.587,11.587,0,0,0,3.291-.045Zm110.55,0V62.995c0-6.3-2.655-9.513-7.854-9.513a9.577,9.577,0,0,0-7.5,3.321l-.5-2.962H165.09c0,.853.241,5.789.241,7.584v17.95h7.679V63.668c0-3.769,2.194-4.936,3.686-4.936,2.194,0,3.225,1.571,3.225,4.487V75.47c0,3.029,2.194,3.882,4.388,4.016a11.372,11.372,0,0,0,3.291-.045ZM88.808,90.077A41.679,41.679,0,0,1,81.5,88.955a21.351,21.351,0,0,1,.812-2.894c.373-1.032,1.36-1.571,2.962-1.346a20.718,20.718,0,0,0,3.269.337,5.8,5.8,0,0,0,4.388-1.5,6.967,6.967,0,0,0,1.623-5.026V76.7h-.219a6.8,6.8,0,0,1-5.594,2.491c-6.845,0-9.28-6.372-9.28-12.363A15.2,15.2,0,0,1,83.1,56.106a8.68,8.68,0,0,1,6.362-2.715,6.536,6.536,0,0,1,5.726,2.939l.614-2.491h6.582s-.263,4.263-.263,8.01V76.682c0,5.34-1.075,8.481-3.576,10.523a15.109,15.109,0,0,1-9.719,2.8Zm2.523-31.188A3.275,3.275,0,0,0,88.9,59.9a10.4,10.4,0,0,0-1.887,6.866c0,4.689,1.558,7.517,4.146,7.517a3.094,3.094,0,0,0,2.918-2,6,6,0,0,0,.395-2.244V63.085a6.435,6.435,0,0,0-.329-2,3.019,3.019,0,0,0-2.808-2.244Zm24.133,20.867a11.49,11.49,0,0,0,2.194-.269l3.971-16.671h.219s1.909,7.023,3.2,12.228c1.185,4.8,4.8,4.487,6.845,4.487a3.761,3.761,0,0,0,1.448-.224l7.2-25.467h-7.7l-3.752,16.424h-.219L124.744,53.84a12.691,12.691,0,0,0-2.194-.247c-1.777,0-3.6,0-4.388,3.029s-3.137,13.709-3.137,13.709h-.154l-4.1-16.492h-7.657c.7,2.513,5.594,19.9,6.121,21.562a5.752,5.752,0,0,0,6.3,4.286Zm35.98.135c-7.24,0-11.386-4.8-11.386-13.126a14.127,14.127,0,0,1,3.488-10.074,11.1,11.1,0,0,1,8.008-3.209c6.933,0,11.255,5.026,11.255,13.126a14,14,0,0,1-3.4,10.1,11.335,11.335,0,0,1-7.964,3.186Zm0-21.585a2.711,2.711,0,0,0-2,.83c-1.492,1.548-1.821,4.914-1.821,7.472,0,5.654,1.294,8.414,3.949,8.414a2.322,2.322,0,0,0,1.711-.74c1.558-1.616,1.8-5.5,1.8-7.674,0-2.513-.373-8.3-3.642-8.3ZM0,74.864V44.551A55.784,55.784,0,0,1,10.4,44.1c11.562.83,17.551,8.8,17.551,18.735,0,6.574-3.05,17.008-18.824,17.008C1.931,79.845,0,77.646,0,74.864ZM7.679,50.183V71.274c0,.875,0,2.85,2.7,2.85,3.861,0,8.995-2.715,8.995-11.219,0-4.241-2.194-12.071-8.776-12.812a9.935,9.935,0,0,0-2.918,0ZM207.322,7.395a27.168,27.168,0,0,0-37.1,0,24.217,24.217,0,0,0,0,35.384,27.125,27.125,0,0,0,37.1,0,24.217,24.217,0,0,0,0-35.384ZM187.094,47.109a21.212,21.212,0,0,1-4.1-.7,19.563,19.563,0,0,1-5.287-2.625,33.057,33.057,0,0,1,9.412-1.84Zm0-7.831a35.9,35.9,0,0,0-11.584,2.58c-.373-.337-.724-.7-1.075-1.077a23.615,23.615,0,0,1-3.313-4.667,87.271,87.271,0,0,1,16.037-1.705Zm0-8.055a91.122,91.122,0,0,0-17.31,1.93,24.225,24.225,0,0,1-1.47-6.933h18.78Zm0-7.808H168.337a24.308,24.308,0,0,1,1.536-6.911,92.043,92.043,0,0,0,17.222,1.907Zm0-8.077a89.649,89.649,0,0,1-15.971-1.616,22.144,22.144,0,0,1,3.137-4.487,16.686,16.686,0,0,1,1.25-1.212,36.085,36.085,0,0,0,11.518,2.423Zm0-7.561a32.882,32.882,0,0,1-9.17-1.75,19.192,19.192,0,0,1,9.17-3.41Zm3.269-5.161a19.109,19.109,0,0,1,9.28,3.5,32.882,32.882,0,0,1-9.17,1.75Zm0,7.741a36.078,36.078,0,0,0,11.474-2.333,16.7,16.7,0,0,1,1.251,1.256,22.144,22.144,0,0,1,3.137,4.487,89.655,89.655,0,0,1-15.906,1.705Zm0,8.055A92.323,92.323,0,0,0,207.585,16.5a24.308,24.308,0,0,1,1.536,6.911H190.363Zm4.1,28a21.213,21.213,0,0,1-4.1.7V41.948a32.757,32.757,0,0,1,9.412,1.84,19.576,19.576,0,0,1-5.309,2.715Zm8.776-5.722q-.527.583-1.053,1.077a36.151,36.151,0,0,0-11.715-2.491V34.409a87.272,87.272,0,0,1,16.037,1.705,23.6,23.6,0,0,1-3.379,4.667Zm4.541-7.539a91.108,91.108,0,0,0-17.419-1.75V26.31h18.78a24.981,24.981,0,0,1-1.47,6.933Z" transform="translate(159.499 126.923)" fill="#0065bd"/>
  </g>
</svg>
